<svg xmlns="http://www.w3.org/2000/svg" width="60" height="31" fill="none">
    <g fill="#FF9D28">
        <path d="m48.633 24.032 3.073-.496 1.654-2.755.524 1.194.792.774.396.877 2.752.69-2.094 2.222.658 2.912-1.316-.51-1.76-.934-2.883 1.354.378-3.115-2.174-2.213Zm-47.222.09 3.073-.496 1.607-2.935 1.465 2.89 3.309.542-2.316 2.167.472 3.16-2.93-1.354-2.93 1.354.377-3.115-2.127-2.212Zm11.77 0 3.073-.496 1.607-2.935 1.512 2.89 3.262.542-2.316 2.167.52 3.16-2.978-1.354-2.884 1.354.379-3.115-2.175-2.212Zm12.007 0 3.072-.496 1.607-2.935 1.466 2.89 3.308.542-2.316 2.167.52 3.16-2.978-1.354-2.93 1.354.378-3.115-2.127-2.212Zm11.628 0 3.072-.496 1.608-2.935 1.512 2.89 3.262.542-2.317 2.167.52 3.16-2.977-1.354-2.884 1.354.378-3.115-2.174-2.212Z"/>
        <path d="m11.762 23.854-3.924-.542-1.749-3.387-1.749 3.387-3.923.542 2.836 2.618-.662 3.748 3.498-1.761 3.498 1.76-.662-3.747 2.837-2.618Zm-5.673 3.792L3.631 28.91l.473-2.618-1.985-1.851 2.789-.407 1.229-2.393 1.229 2.393 2.789.407-1.986 1.85.473 2.62-2.553-1.265Zm17.49-3.792-3.923-.542-1.75-3.387-1.748 3.387-3.924.542 2.836 2.618-.661 3.748 3.498-1.761 3.498 1.76-.662-3.747 2.836-2.618Zm-5.672 3.792-2.458 1.264.472-2.618-1.985-1.851 2.789-.407 1.229-2.393 1.229 2.393 2.789.407-1.986 1.85.473 2.62-2.552-1.265Zm17.49-3.792-3.924-.542-1.749-3.387-1.749 3.387-3.923.542 2.836 2.618-.662 3.748 3.498-1.761 3.498 1.76-.662-3.747 2.836-2.618Zm-5.673 3.792-2.458 1.264.473-2.618-1.986-1.851 2.79-.407 1.228-2.393 1.23 2.393 2.788.407-1.985 1.85.473 2.62-2.553-1.265Zm17.49-3.792-3.924-.542-1.749-3.387-1.749 3.387-3.923.542 2.836 2.618-.662 3.748 3.498-1.761 3.498 1.76-.662-3.747 2.837-2.618Zm-5.673 3.792-2.458 1.264.473-2.618-1.985-1.851 2.788-.407 1.23-2.393 1.229 2.393 2.788.407-1.985 1.85.473 2.62-2.553-1.265Zm17.49-3.792-3.923-.542-1.75-3.387-1.748 3.387-3.924.542 2.836 2.618-.661 3.748 3.498-1.761 3.497 1.76-.661-3.747 2.836-2.618Zm-5.672 3.792L50.9 28.91l.472-2.618-1.985-1.851 2.789-.407 1.229-2.393 1.229 2.393 2.789.407-1.986 1.85.473 2.62-2.552-1.265Z"/>
    </g>
    <g>
        <path fill="#FF9D28" d="M.755 4.855h5.137l3.123.001V1.761L.755 4.855Z"/>
        <path fill="#68C5ED" d="M9.016 1.754V12.68l3.9-12.387-3.9 1.461Z"/>
        <path fill="#044D80" d="M9.016 4.856H5.893l3.123 7.83v-7.83Z"/>
        <path fill="#E54747" d="m.755 4.847 5.938 2.01-.801-2.009H.755Z"/>
        <path fill="#044D80" d="M19.678 9.802c-.045.045-.12.102-.226.17a2.481 2.481 0 0 1-.413.203 3.62 3.62 0 0 1-.622.176 4.34 4.34 0 0 1-.843.073c-.611 0-1.139-.098-1.584-.294a2.95 2.95 0 0 1-1.103-.82 3.362 3.362 0 0 1-.64-1.245 5.773 5.773 0 0 1-.203-1.578c0-.574.073-1.104.22-1.59.148-.487.368-.907.662-1.262a3.042 3.042 0 0 1 1.104-.831c.44-.2.96-.3 1.555-.3.295 0 .56.026.798.079.238.053.445.115.622.187a2.4 2.4 0 0 1 .708.424.9.9 0 0 1 .175.215.525.525 0 0 1 .073.271.752.752 0 0 1-.17.453 3.27 3.27 0 0 1-.373.419 4.6 4.6 0 0 0-.305-.277 2.069 2.069 0 0 0-.38-.25 2.51 2.51 0 0 0-.474-.18 2.23 2.23 0 0 0-.594-.074c-.385 0-.707.077-.968.232-.26.155-.47.356-.628.605a2.567 2.567 0 0 0-.34.855 4.957 4.957 0 0 0 0 1.997c.069.324.185.61.352.86.165.248.382.448.65.6.268.15.602.226 1.002.226.21 0 .405-.027.582-.08a2.337 2.337 0 0 0 .826-.43 7.73 7.73 0 0 0 .255-.215c.045.053.098.118.158.193.06.076.118.155.17.237.052.084.098.166.136.25a.556.556 0 0 1 .056.226.507.507 0 0 1-.056.249 1.08 1.08 0 0 1-.181.226Zm5.831-.868c0 .6.087 1.036.262 1.31a1.941 1.941 0 0 1-.751.148c-.273 0-.48-.054-.62-.16a.715.715 0 0 1-.268-.456 2.053 2.053 0 0 1-.66.444c-.273.122-.607.183-1.002.183-.205 0-.41-.029-.614-.085a1.615 1.615 0 0 1-.558-.278 1.443 1.443 0 0 1-.41-.517 1.77 1.77 0 0 1-.16-.788c0-.386.093-.7.28-.942.185-.242.419-.433.7-.573.28-.14.584-.236.91-.29a8.665 8.665 0 0 1 1.167-.113h.245V6.61c0-.292-.078-.5-.234-.622-.155-.123-.408-.184-.757-.184-.326 0-.616.053-.87.16a7.119 7.119 0 0 0-.746.363 1.67 1.67 0 0 1-.256-.426 1.03 1.03 0 0 1-.097-.348c0-.106.059-.208.177-.307.117-.099.279-.188.483-.268.205-.08.44-.144.706-.193.266-.05.547-.074.842-.074.41 0 .757.042 1.042.125.285.084.516.213.694.387.178.175.306.393.382.655.075.262.113.567.113.916v2.14Zm-1.457-1.32h-.159a7.013 7.013 0 0 0-.723.08c-.186.03-.35.083-.495.159a1.04 1.04 0 0 0-.353.296.758.758 0 0 0-.136.466c0 .213.06.393.182.541.121.148.326.222.614.222a1.439 1.439 0 0 0 .752-.205.882.882 0 0 0 .233-.2.332.332 0 0 0 .085-.198V7.614Zm4.291-2.243c.122-.144.31-.29.568-.438.257-.148.582-.222.976-.222.28 0 .546.047.8.142.253.095.478.249.675.461.197.213.354.494.47.843.118.349.177.778.177 1.286 0 .592-.068 1.08-.204 1.463-.137.383-.313.687-.528.91a1.817 1.817 0 0 1-.72.473c-.265.09-.53.136-.795.136-.22 0-.41-.024-.573-.074-.163-.049-.3-.104-.414-.165a1.1 1.1 0 0 1-.374-.307v2.798h-1.549V4.87a2.716 2.716 0 0 1 .299-.04 3.65 3.65 0 0 1 .218-.005c.252 0 .466.042.642.125a.59.59 0 0 1 .332.421Zm2.05 2.106c0-.228-.02-.44-.057-.637a1.55 1.55 0 0 0-.187-.513.909.909 0 0 0-.35-.335 1.116 1.116 0 0 0-.538-.12c-.317 0-.538.06-.662.182a.55.55 0 0 0-.187.399v2.413c.06.06.168.133.322.216.155.084.334.125.538.125.385 0 .668-.151.849-.455.18-.303.271-.729.271-1.275Zm2.81 1.958a1.982 1.982 0 0 1-.102-.478 5.518 5.518 0 0 1-.023-.501V3.174l.171-.023a2.302 2.302 0 0 1 .353-.022c.121 0 .243.011.364.034a.85.85 0 0 1 .33.136.752.752 0 0 1 .24.28c.06.117.09.27.09.46v.808h1.594v1.15h-1.594v2.428c0 .53.217.794.65.794a.883.883 0 0 0 .3-.052c.096-.034.181-.072.257-.113a1.395 1.395 0 0 0 .319-.234c.114.167.2.312.261.434s.092.237.092.344c0 .1-.04.197-.12.293-.08.096-.192.184-.336.264-.144.08-.319.146-.523.196-.205.05-.43.074-.672.074-.47 0-.837-.09-1.098-.273a1.453 1.453 0 0 1-.552-.717Zm6.938-.148a1.817 1.817 0 0 0 .89-.216c.115-.06.214-.127.298-.2.083-.071.16-.138.228-.199.091.114.187.26.286.439.099.178.148.324.148.438 0 .167-.095.319-.284.455-.16.122-.386.226-.678.313a3.62 3.62 0 0 1-1.03.131c-.357 0-.708-.045-1.053-.136a2.327 2.327 0 0 1-.922-.479 2.457 2.457 0 0 1-.654-.916c-.167-.383-.25-.867-.25-1.451 0-.478.073-.89.221-1.235.148-.346.346-.632.592-.86.247-.227.526-.394.837-.5.311-.107.63-.16.956-.16.425 0 .785.066 1.081.2.296.132.537.31.723.534.186.224.32.48.404.769.084.288.126.591.126.91v.16c0 .06-.002.125-.006.193l-.012.2a1.24 1.24 0 0 1-.017.153h-3.358c.03.417.16.765.389 1.042.228.277.59.415 1.085.415Zm.518-2.31c0-.365-.07-.661-.211-.889-.142-.227-.395-.341-.762-.341-.313 0-.563.108-.75.324-.187.217-.28.518-.28.905h2.003ZM44.754 5.4c.045-.068.106-.143.182-.226a1.29 1.29 0 0 1 .278-.226 1.79 1.79 0 0 1 .365-.17c.132-.044.275-.067.427-.067.09 0 .187.008.29.023.102.015.197.043.284.084a.552.552 0 0 1 .21.17c.054.071.08.16.08.265 0 .165-.041.355-.125.57a4.644 4.644 0 0 1-.25.55 1.686 1.686 0 0 0-.387-.245 1.122 1.122 0 0 0-.455-.085.876.876 0 0 0-.592.205c-.16.137-.24.3-.24.491v3.685h-1.547V4.87a2.733 2.733 0 0 1 .296-.04c.06-.003.132-.005.216-.005.243 0 .453.047.632.14.178.095.29.24.336.435Zm4.4 0c.046-.068.107-.143.183-.226.076-.083.169-.158.279-.226a1.79 1.79 0 0 1 .364-.17c.133-.044.275-.067.427-.067.09 0 .188.008.29.023.102.015.197.043.285.084a.553.553 0 0 1 .21.17c.053.071.08.16.08.265 0 .165-.042.355-.125.57a4.66 4.66 0 0 1-.25.55 1.687 1.687 0 0 0-.388-.245 1.12 1.12 0 0 0-.455-.085.876.876 0 0 0-.592.205.627.627 0 0 0-.239.491v3.685h-1.548V4.87a2.733 2.733 0 0 1 .296-.04c.06-.003.133-.005.216-.005.243 0 .454.047.632.14.178.095.29.24.336.435Zm7.388 3.534c0 .6.087 1.036.262 1.31a1.942 1.942 0 0 1-.751.148c-.274 0-.48-.054-.62-.16a.714.714 0 0 1-.268-.456 2.052 2.052 0 0 1-.66.444c-.274.122-.608.183-1.002.183a2.3 2.3 0 0 1-.615-.085 1.615 1.615 0 0 1-.557-.278 1.443 1.443 0 0 1-.41-.517 1.77 1.77 0 0 1-.16-.788c0-.386.093-.7.28-.942.185-.242.419-.433.7-.573.28-.14.584-.236.91-.29a8.665 8.665 0 0 1 1.167-.113h.245V6.61c0-.292-.079-.5-.234-.622-.156-.123-.408-.184-.757-.184-.326 0-.616.053-.87.16a7.128 7.128 0 0 0-.746.363 1.67 1.67 0 0 1-.256-.426 1.029 1.029 0 0 1-.097-.348c0-.106.059-.208.176-.307.118-.099.28-.188.484-.268.205-.08.44-.144.706-.193.265-.05.546-.074.842-.074.41 0 .757.042 1.042.125.284.084.516.213.694.387.178.175.305.393.381.655.076.262.114.567.114.916v2.14Zm-1.457-1.32h-.16a7.032 7.032 0 0 0-.723.08c-.185.03-.35.083-.494.159a1.04 1.04 0 0 0-.353.296.758.758 0 0 0-.137.466c0 .213.061.393.183.541.12.148.326.222.614.222a1.439 1.439 0 0 0 .752-.205.88.88 0 0 0 .233-.2.332.332 0 0 0 .085-.198V7.614Z"/>
    </g>
</svg>
